<?xml version="1.0" encoding="UTF-8" standalone="no"?>
<!-- Created with Inkscape (http://www.inkscape.org/) -->

<svg
   version="1.1"
   id="svg248"
   xml:space="preserve"
   width="427.98132"
   height="316.33466"
   viewBox="0 0 427.98132 316.33466"
   sodipodi:docname="celldepot4.svg"
   inkscape:version="1.1 (c68e22c387, 2021-05-23)"
   xmlns:inkscape="http://www.inkscape.org/namespaces/inkscape"
   xmlns:sodipodi="http://sodipodi.sourceforge.net/DTD/sodipodi-0.dtd"
   xmlns="http://www.w3.org/2000/svg"
   xmlns:svg="http://www.w3.org/2000/svg"><defs
     id="defs252"><linearGradient
       x1="0"
       y1="0"
       x2="1"
       y2="0"
       gradientUnits="userSpaceOnUse"
       gradientTransform="matrix(140.60307,0,0,-140.60307,12.260058,119.40254)"
       spreadMethod="pad"
       id="linearGradient286"><stop
         style="stop-opacity:1;stop-color:#ffffff"
         offset="0"
         id="stop268" /><stop
         style="stop-opacity:1;stop-color:#50ade5"
         offset="0.09695839"
         id="stop270" /><stop
         style="stop-opacity:1;stop-color:#50ade5"
         offset="0.173508"
         id="stop272" /><stop
         style="stop-opacity:1;stop-color:#80cc28"
         offset="0.355489"
         id="stop274" /><stop
         style="stop-opacity:1;stop-color:#cce310"
         offset="0.526269"
         id="stop276" /><stop
         style="stop-opacity:1;stop-color:#f14624"
         offset="0.714802"
         id="stop278" /><stop
         style="stop-opacity:1;stop-color:#da1259"
         offset="0.859871"
         id="stop280" /><stop
         style="stop-opacity:1;stop-color:#bf1b2c"
         offset="0.974682"
         id="stop282" /><stop
         style="stop-opacity:1;stop-color:#bf1b2c"
         offset="1"
         id="stop284" /></linearGradient><clipPath
       clipPathUnits="userSpaceOnUse"
       id="clipPath296"><path
         d="M 0,237.251 H 320.986 V 0 H 0 Z"
         id="path294" /></clipPath><clipPath
       clipPathUnits="userSpaceOnUse"
       id="clipPath312"><path
         d="M 0,237.251 H 320.986 V 0 H 0 Z"
         id="path310" /></clipPath><clipPath
       clipPathUnits="userSpaceOnUse"
       id="clipPath460"><path
         d="M 0,237.251 H 320.986 V 0 H 0 Z"
         id="path458" /></clipPath><clipPath
       clipPathUnits="userSpaceOnUse"
       id="clipPath476"><path
         d="M 0,237.251 H 320.986 V 0 H 0 Z"
         id="path474" /></clipPath></defs><sodipodi:namedview
     id="namedview250"
     pagecolor="#ffffff"
     bordercolor="#666666"
     borderopacity="1.0"
     inkscape:pageshadow="2"
     inkscape:pageopacity="0.0"
     inkscape:pagecheckerboard="0"
     showgrid="false"
     inkscape:zoom="2.4720655"
     inkscape:cx="213.78883"
     inkscape:cy="190.52893"
     inkscape:window-width="1920"
     inkscape:window-height="986"
     inkscape:window-x="2869"
     inkscape:window-y="-11"
     inkscape:window-maximized="1"
     inkscape:current-layer="g254" /><g
     id="g254"
     inkscape:groupmode="layer"
     inkscape:label="celldepot4"
     transform="matrix(1.3333333,0,0,-1.3333333,0,316.33467)"><g
       id="g256"><g
         id="g258"><g
           id="g264"><g
             id="g266"><path
               d="M 41.358,189.197 C 36.595,184.463 26.68,173.623 19.736,156.765 v 0 c -15.186,-36.864 -3.037,-70.621 0,-78.379 v 0 c 3.261,-8.328 7.853,-20.054 18.919,-31.08 v 0 C 66.853,19.21 119.048,11.386 141.358,33.792 v 0 c 5.992,6.018 13.907,18.313 10.811,29.729 v 0 c -5.146,18.97 -35.136,14.999 -47.536,38.523 v 0 c -6.944,13.173 -5.664,29.828 -1.113,41.207 v 0 c 7.008,17.524 19.708,18.017 22.973,32.433 v 0 c 3.174,14.017 -5.648,32.276 -18.919,39.189 v 0 c -4.251,2.215 -8.751,3.154 -13.318,3.155 v 0 C 70.363,218.031 44.52,192.34 41.358,189.197"
               style="fill:url(#linearGradient286);stroke:none"
               id="path288" /></g></g></g></g><g
       id="g290"><g
         id="g292"
         clip-path="url(#clipPath296)"><g
           id="g298"
           transform="translate(41.3578,189.1973)"><path
             d="m 0,0 c -4.763,-4.734 -14.677,-15.575 -21.622,-32.432 -15.185,-36.864 -3.037,-70.622 0,-78.379 3.261,-8.328 7.852,-20.054 18.919,-31.081 28.198,-28.094 80.394,-35.919 102.703,-13.513 5.992,6.017 13.908,18.313 10.811,29.729 -5.146,18.97 -35.136,14.999 -47.536,38.523 -6.944,13.173 -5.663,29.828 -1.113,41.207 7.008,17.524 19.708,18.017 22.973,32.432 C 88.31,0.504 79.487,18.763 66.216,25.676 39.719,39.479 3.766,3.743 0,0 Z"
             style="fill:none;stroke:#231f20;stroke-width:1;stroke-linecap:butt;stroke-linejoin:miter;stroke-miterlimit:10;stroke-dasharray:none;stroke-opacity:1"
             id="path300" /></g></g></g><text
       transform="matrix(1,0,0,-1,120.8491,113.522)"
       style="font-variant:normal;font-weight:bold;font-stretch:normal;font-size:90px;font-family:'Comic Sans MS';-inkscape-font-specification:ComicSansMS-Bold;writing-mode:lr-tb;fill:#231f20;fill-opacity:1;fill-rule:nonzero;stroke:none"
       id="text304"><tspan
         x="0 50.310001 74.970001"
         y="0"
         sodipodi:role="line"
         id="tspan302">ell</tspan></text><g
       id="g306"><g
         id="g308"
         clip-path="url(#clipPath312)"><g
           id="g314"
           transform="translate(157.7069,96.1016)"><path
             d="m 0,0 v -74.324 h 28.378 c 13.642,5.363 23.595,17.038 25.676,30.73 C 56.759,-25.798 45.76,-7.281 27.027,0"
             style="fill:#231f20;fill-opacity:1;fill-rule:nonzero;stroke:none"
             id="path316" /></g><g
           id="g318"
           transform="translate(160.6933,80.6294)"><path
             d="M 0,0 0.062,10.757 C 0.062,10.891 0.171,11 0.306,11 h 26.256 c 3.033,0 5.501,-2.467 5.501,-5.5 0,-3.033 -2.468,-5.5 -5.501,-5.5 z"
             style="fill:#ffffff;fill-opacity:1;fill-rule:nonzero;stroke:none"
             id="path320" /></g><g
           id="g322"
           transform="translate(187.2558,92.1294)"><path
             d="M 0,0 H -26.257 C -26.667,0 -27,-0.333 -27,-0.743 v -10.819 c 0,-0.242 0.196,-0.438 0.438,-0.438 L 0,-12 c 3.313,0 6,2.687 6,6 0,3.314 -2.687,6 -6,6 m 0,-1 c 2.757,0 5,-2.243 5,-5 0,-2.757 -2.243,-5 -5,-5 H -26 V -1 H 0"
             style="fill:#231f20;fill-opacity:1;fill-rule:nonzero;stroke:none"
             id="path324" /></g><g
           id="g326"
           transform="translate(160.7563,66.9341)"><path
             d="M 0,0 V 11 H 36.5 C 39.533,11 42,8.533 42,5.5 42,2.467 39.533,0 36.5,0 Z"
             style="fill:#ffffff;fill-opacity:1;fill-rule:nonzero;stroke:none"
             id="path328" /></g><g
           id="g330"
           transform="translate(197.2563,78.4341)"><path
             d="M 0,0 H -36.925 C -36.966,0 -37,-0.034 -37,-0.075 V -12 H 0 c 3.313,0 6,2.687 6,6 0,3.314 -2.687,6 -6,6 m 0,-1 c 2.757,0 5,-2.243 5,-5 0,-2.757 -2.243,-5 -5,-5 H -36 V -1 H 0"
             style="fill:#231f20;fill-opacity:1;fill-rule:nonzero;stroke:none"
             id="path332" /></g><g
           id="g334"
           transform="translate(163.2558,86.2656)"><path
             d="M 0,0 H 18"
             style="fill:none;stroke:#231f20;stroke-width:1;stroke-linecap:round;stroke-linejoin:round;stroke-miterlimit:10;stroke-dasharray:none;stroke-opacity:1"
             id="path336" /></g><g
           id="g338"
           transform="translate(185.9735,86.355)"><path
             d="M 0,0 H 3"
             style="fill:none;stroke:#231f20;stroke-width:1;stroke-linecap:round;stroke-linejoin:round;stroke-miterlimit:10;stroke-dasharray:none;stroke-opacity:1"
             id="path340" /></g><g
           id="g342"
           transform="translate(190.9735,86.355)"><path
             d="M 0,0 H 3"
             style="fill:none;stroke:#231f20;stroke-width:1;stroke-linecap:round;stroke-linejoin:round;stroke-miterlimit:10;stroke-dasharray:none;stroke-opacity:1"
             id="path344" /></g><g
           id="g346"
           transform="translate(163.2558,34.5352)"><path
             d="M 0,0 H 18"
             style="fill:none;stroke:#231f20;stroke-width:1;stroke-linecap:round;stroke-linejoin:round;stroke-miterlimit:10;stroke-dasharray:none;stroke-opacity:1"
             id="path348" /></g><g
           id="g350"
           transform="translate(185.9735,34.6245)"><path
             d="M 0,0 H 3"
             style="fill:none;stroke:#231f20;stroke-width:1;stroke-linecap:round;stroke-linejoin:round;stroke-miterlimit:10;stroke-dasharray:none;stroke-opacity:1"
             id="path352" /></g><g
           id="g354"
           transform="translate(190.9735,34.6245)"><path
             d="M 0,0 H 3"
             style="fill:none;stroke:#231f20;stroke-width:1;stroke-linecap:round;stroke-linejoin:round;stroke-miterlimit:10;stroke-dasharray:none;stroke-opacity:1"
             id="path356" /></g><g
           id="g358"
           transform="translate(160.6933,27.0352)"><path
             d="M 0,0 0.062,10.756 C 0.062,10.891 0.171,11 0.306,11 h 26.256 c 3.033,0 5.501,-2.467 5.501,-5.5 0,-3.033 -2.468,-5.5 -5.501,-5.5 z"
             style="fill:#ffffff;fill-opacity:1;fill-rule:nonzero;stroke:none"
             id="path360" /></g><g
           id="g362"
           transform="translate(187.2558,38.5352)"><path
             d="M 0,0 H -26.257 C -26.667,0 -27,-0.333 -27,-0.744 v -10.819 c 0,-0.241 0.196,-0.437 0.438,-0.437 H 0 c 3.313,0 6,2.686 6,6 0,3.313 -2.687,6 -6,6 m 0,-1 c 2.757,0 5,-2.243 5,-5 0,-2.757 -2.243,-5 -5,-5 H -26 V -1 H 0"
             style="fill:#231f20;fill-opacity:1;fill-rule:nonzero;stroke:none"
             id="path364" /></g><g
           id="g366"
           transform="translate(163.2558,32.6709)"><path
             d="M 0,0 H 18"
             style="fill:none;stroke:#231f20;stroke-width:1;stroke-linecap:round;stroke-linejoin:round;stroke-miterlimit:10;stroke-dasharray:none;stroke-opacity:1"
             id="path368" /></g><g
           id="g370"
           transform="translate(185.9735,32.7603)"><path
             d="M 0,0 H 3"
             style="fill:none;stroke:#231f20;stroke-width:1;stroke-linecap:round;stroke-linejoin:round;stroke-miterlimit:10;stroke-dasharray:none;stroke-opacity:1"
             id="path372" /></g><g
           id="g374"
           transform="translate(190.9735,32.7603)"><path
             d="M 0,0 H 3"
             style="fill:none;stroke:#231f20;stroke-width:1;stroke-linecap:round;stroke-linejoin:round;stroke-miterlimit:10;stroke-dasharray:none;stroke-opacity:1"
             id="path376" /></g><g
           id="g378"
           transform="translate(160.7563,40.0972)"><path
             d="M 0,0 V 11 H 36.5 C 39.533,11 42,8.533 42,5.5 42,2.467 39.533,0 36.5,0 Z"
             style="fill:#ffffff;fill-opacity:1;fill-rule:nonzero;stroke:none"
             id="path380" /></g><g
           id="g382"
           transform="translate(197.2563,51.5972)"><path
             d="M 0,0 H -36.925 C -36.966,0 -37,-0.034 -37,-0.075 V -12 H 0 c 3.313,0 6,2.687 6,6 0,3.314 -2.687,6 -6,6 m 0,-1 c 2.757,0 5,-2.243 5,-5 0,-2.757 -2.243,-5 -5,-5 H -36 V -1 H 0"
             style="fill:#231f20;fill-opacity:1;fill-rule:nonzero;stroke:none"
             id="path384" /></g><g
           id="g386"
           transform="translate(160.7563,53.4395)"><path
             d="M 0,0 V 11 H 41.5 C 44.533,11 47,8.533 47,5.5 47,2.467 44.533,0 41.5,0 Z"
             style="fill:#ffffff;fill-opacity:1;fill-rule:nonzero;stroke:none"
             id="path388" /></g><g
           id="g390"
           transform="translate(202.2563,64.9395)"><path
             d="M 0,0 H -41.925 C -41.966,0 -42,-0.034 -42,-0.075 V -12 H 0 c 3.313,0 6,2.686 6,6 0,3.314 -2.687,6 -6,6 m 0,-1 c 2.757,0 5,-2.243 5,-5 0,-2.757 -2.243,-5 -5,-5 H -41 V -1 H 0"
             style="fill:#231f20;fill-opacity:1;fill-rule:nonzero;stroke:none"
             id="path392" /></g><g
           id="g394"
           transform="translate(163.2558,72.4341)"><path
             d="M 0,0 H 18"
             style="fill:none;stroke:#231f20;stroke-width:1;stroke-linecap:round;stroke-linejoin:round;stroke-miterlimit:10;stroke-dasharray:none;stroke-opacity:1"
             id="path396" /></g><g
           id="g398"
           transform="translate(163.2558,59.0156)"><path
             d="M 0,0 H 18"
             style="fill:none;stroke:#231f20;stroke-width:1;stroke-linecap:round;stroke-linejoin:round;stroke-miterlimit:10;stroke-dasharray:none;stroke-opacity:1"
             id="path400" /></g><g
           id="g402"
           transform="translate(163.2558,45.5972)"><path
             d="M 0,0 H 18"
             style="fill:none;stroke:#231f20;stroke-width:1;stroke-linecap:round;stroke-linejoin:round;stroke-miterlimit:10;stroke-dasharray:none;stroke-opacity:1"
             id="path404" /></g><g
           id="g406"
           transform="translate(185.9735,72.355)"><path
             d="M 0,0 H 3"
             style="fill:none;stroke:#231f20;stroke-width:1;stroke-linecap:round;stroke-linejoin:round;stroke-miterlimit:10;stroke-dasharray:none;stroke-opacity:1"
             id="path408" /></g><g
           id="g410"
           transform="translate(190.9735,72.355)"><path
             d="M 0,0 H 3"
             style="fill:none;stroke:#231f20;stroke-width:1;stroke-linecap:round;stroke-linejoin:round;stroke-miterlimit:10;stroke-dasharray:none;stroke-opacity:1"
             id="path412" /></g><g
           id="g414"
           transform="translate(195.9735,72.355)"><path
             d="M 0,0 H 3"
             style="fill:none;stroke:#231f20;stroke-width:1;stroke-linecap:round;stroke-linejoin:round;stroke-miterlimit:10;stroke-dasharray:none;stroke-opacity:1"
             id="path416" /></g><g
           id="g418"
           transform="translate(184.4735,45.7373)"><path
             d="M 0,0 H 3"
             style="fill:none;stroke:#231f20;stroke-width:1;stroke-linecap:round;stroke-linejoin:round;stroke-miterlimit:10;stroke-dasharray:none;stroke-opacity:1"
             id="path420" /></g><g
           id="g422"
           transform="translate(189.4735,45.7373)"><path
             d="M 0,0 H 3"
             style="fill:none;stroke:#231f20;stroke-width:1;stroke-linecap:round;stroke-linejoin:round;stroke-miterlimit:10;stroke-dasharray:none;stroke-opacity:1"
             id="path424" /></g><g
           id="g426"
           transform="translate(194.4735,45.7373)"><path
             d="M 0,0 H 3"
             style="fill:none;stroke:#231f20;stroke-width:1;stroke-linecap:round;stroke-linejoin:round;stroke-miterlimit:10;stroke-dasharray:none;stroke-opacity:1"
             id="path428" /></g><g
           id="g430"
           transform="translate(185.9735,59.0156)"><path
             d="M 0,0 H 3"
             style="fill:none;stroke:#231f20;stroke-width:1;stroke-linecap:round;stroke-linejoin:round;stroke-miterlimit:10;stroke-dasharray:none;stroke-opacity:1"
             id="path432" /></g><g
           id="g434"
           transform="translate(190.9735,59.0156)"><path
             d="M 0,0 H 3"
             style="fill:none;stroke:#231f20;stroke-width:1;stroke-linecap:round;stroke-linejoin:round;stroke-miterlimit:10;stroke-dasharray:none;stroke-opacity:1"
             id="path436" /></g><g
           id="g438"
           transform="translate(195.9735,59.0156)"><path
             d="M 0,0 H 3"
             style="fill:none;stroke:#231f20;stroke-width:1;stroke-linecap:round;stroke-linejoin:round;stroke-miterlimit:10;stroke-dasharray:none;stroke-opacity:1"
             id="path440" /></g><g
           id="g442"
           transform="translate(200.9735,59.0156)"><path
             d="M 0,0 H 3"
             style="fill:none;stroke:#231f20;stroke-width:1;stroke-linecap:round;stroke-linejoin:round;stroke-miterlimit:10;stroke-dasharray:none;stroke-opacity:1"
             id="path444" /></g></g></g><text
       transform="matrix(1,0,0,-1,212.2563,24.7773)"
       style="font-variant:normal;font-weight:bold;font-stretch:normal;font-size:40px;font-family:'Comic Sans MS';-inkscape-font-specification:ComicSansMS-Bold;writing-mode:lr-tb;fill:#231f20;fill-opacity:1;fill-rule:nonzero;stroke:none"
       id="text448"><tspan
         x="0 25 46.32"
         y="0"
         sodipodi:role="line"
         id="tspan446">EP </tspan></text><text
       transform="matrix(1,0,0,-1,258.8745,31.5645)"
       style="font-variant:normal;font-weight:normal;font-stretch:normal;font-size:32px;font-family:Arial;-inkscape-font-specification:ArialMT;writing-mode:lr-tb;fill:#231f20;fill-opacity:1;fill-rule:nonzero;stroke:none"
       id="text452"><tspan
         x="0"
         y="0"
         id="tspan450">O</tspan></text><g
       id="g454"><g
         id="g456"
         clip-path="url(#clipPath460)"><g
           id="g462"
           transform="translate(261.7339,37.002)"><path
             d="m 0,0 c 0.875,-1.802 2.161,-3.224 3.859,-4.266 1.698,-1.042 3.625,-1.562 5.782,-1.562 1.989,0 3.843,0.472 5.562,1.414 1.719,0.942 3.047,2.331 3.984,4.164 0.938,1.833 1.407,3.911 1.407,6.234 0,2.292 -0.446,4.341 -1.336,6.149 -0.891,1.807 -2.186,3.216 -3.883,4.226 -1.698,1.011 -3.604,1.516 -5.719,1.516 -3.229,0 -5.865,-1.076 -7.906,-3.227 C -0.292,12.497 -1.312,9.521 -1.312,5.719 -1.312,3.708 -0.875,1.802 0,0 Z m 4.133,13.055 c 1.547,1.473 3.392,2.211 5.539,2.211 1.51,0 2.872,-0.383 4.086,-1.149 1.213,-0.765 2.135,-1.844 2.765,-3.234 0.63,-1.391 0.946,-3.019 0.946,-4.883 0,-2.948 -0.738,-5.224 -2.211,-6.828 -1.475,-1.605 -3.352,-2.406 -5.633,-2.406 -2.24,0 -4.102,0.794 -5.586,2.382 -1.484,1.589 -2.227,3.763 -2.227,6.524 0,3.448 0.774,5.909 2.321,7.383 z"
             style="fill:none;stroke:#231f20;stroke-width:0.25;stroke-linecap:butt;stroke-linejoin:miter;stroke-miterlimit:10;stroke-dasharray:none;stroke-opacity:1"
             id="path464" /></g></g></g><text
       transform="matrix(1,0,0,-1,282.1064,23.7773)"
       style="font-variant:normal;font-weight:bold;font-stretch:normal;font-size:40px;font-family:'Comic Sans MS';-inkscape-font-specification:ComicSansMS-Bold;writing-mode:lr-tb;fill:#231f20;fill-opacity:1;fill-rule:nonzero;stroke:none"
       id="text468"><tspan
         x="0"
         y="0"
         id="tspan466">T</tspan></text><g
       id="g470"><g
         id="g472"
         clip-path="url(#clipPath476)"><g
           id="g478"
           transform="translate(268.5888,33.0889)"><path
             d="m 0,0 -3.317,-5.746 -1.345,0.776 3.317,5.746 z"
             style="fill:#231f20;fill-opacity:1;fill-rule:nonzero;stroke:none"
             id="path480" /></g><g
           id="g482"
           transform="translate(267.5019,28.3701)"><path
             d="m 0,0 -3.5,-6.062 -3.464,2 3.5,6.062 z"
             style="fill:#231f20;fill-opacity:1;fill-rule:nonzero;stroke:none"
             id="path484" /></g></g></g></g></svg>
